<svg xmlns="http://www.w3.org/2000/svg" width="56.385" height="76.875" viewBox="0 0 56.385 76.875">
  <g id="初心者マークのアイコン素材" transform="translate(-46.235 2.996)">
    <path id="パス_23" data-name="パス 23" d="M96.428,18.031,79.764,1.916A6.8,6.8,0,0,0,68.235,6.806V47.946a10.208,10.208,0,0,0,3.109,7.334L91.7,74.966a6.8,6.8,0,0,0,9.457,0L121.512,55.28a10.208,10.208,0,0,0,3.109-7.334V6.806a6.8,6.8,0,0,0-11.529-4.889Zm18.6,28.73a3.394,3.394,0,0,1-1.037,2.445L96.428,66.189v-34.8l3.336-3.228,12.378-11.97a1.7,1.7,0,0,1,2.881,1.222Z" transform="translate(-22 -3)" fill="#fff"/>
  </g>
</svg>
