<svg xmlns="http://www.w3.org/2000/svg" width="113.805" height="85.411" viewBox="0 0 113.805 85.411">
  <g id="輸送船アイコン" transform="translate(21.462 41.547)">
    <path id="パス_62" data-name="パス 62" d="M55.169,174.245c6.082-1.69,4.73-10.136,4.73-10.136s29.345-8.165,29.779-8.289c2.147-.572,2.786,1.47,2.646,2.586-3.44,27.452-20.6,41.179-20.6,41.179H5.163C.451,195.655,0,183.94,0,183.94S49.087,175.935,55.169,174.245Zm20.295,2.278a2.494,2.494,0,1,0-2.5-2.494A2.494,2.494,0,0,0,75.463,176.523Z" transform="translate(0 -155.722)" fill="#010745"/>
    <path id="パス_66" data-name="パス 66" d="M290.212,230.994c-5.288.955-11.728,2.068-18.021,3.136l18.021-9.261Z" transform="translate(-246.961 -211.397)" fill="#010745"/>
    <path id="パス_67" data-name="パス 67" d="M404.22,230.853l-17.12,3.162Z" transform="translate(-381.694 -217.303)" fill="#010745"/>
    <path id="パス_68" data-name="パス 68" d="M404.22,251.987c-6.606,1.117-12.834,2.15-17.12,2.858l17.12-8.748Z" transform="translate(-381.693 -228.539)" fill="#010745"/>
    <path id="パス_69" data-name="パス 69" d="M200.275,216.572c-1.247.347-4.405.976-8.613,1.75l11.81-8.312C203.55,211.892,203.322,215.725,200.275,216.572Z" transform="translate(-145.709 -199.036)" fill="#010745"/>
    <path id="パス_70" data-name="パス 70" d="M116.265,156.609l.055.349-11.459,2.117,22.527-10.515,4.95,3.574L118.2,156.069Z" transform="translate(-58.908 -148.56)" fill="#010745"/>
    <g id="花火の無料アイコン" transform="translate(-21.462 -41.547)">
      <path id="パス_25" data-name="パス 25" d="M238.83,10.509c1.308,0,2.2-2.857,2.539-5.738C241.795,1.161,240.27,0,238.83,0s-2.965,1.161-2.542,4.771C236.628,7.652,237.518,10.509,238.83,10.509Z" transform="translate(-205.013 0)" fill="#010745"/>
      <path id="パス_26" data-name="パス 26" d="M238.83,432.439c-1.313,0-2.2,2.857-2.542,5.739-.423,3.609,1.1,4.771,2.542,4.771s2.964-1.162,2.539-4.771C241.03,435.3,240.138,432.439,238.83,432.439Z" transform="translate(-205.014 -375.312)" fill="#010745"/>
      <path id="パス_27" data-name="パス 27" d="M124.746,41.009c1.135-.652.48-3.576-.668-6.238-1.437-3.338-3.337-3.58-4.586-2.862s-1.985,2.489.184,5.4C121.414,39.636,123.611,41.665,124.746,41.009Z" transform="translate(-102.669 -27.407)" fill="#010745"/>
      <path id="パス_28" data-name="パス 28" d="M340.976,408.217c-1.133.651-.48,3.575.666,6.239,1.44,3.337,3.339,3.579,4.588,2.859s1.987-2.489-.184-5.4C344.311,409.589,342.111,407.562,340.976,408.217Z" transform="translate(-295.422 -354.181)" fill="#010745"/>
      <path id="パス_29" data-name="パス 29" d="M37.3,119.691c-2.912-2.169-4.68-1.43-5.4-.183s-.478,3.147,2.859,4.587c2.664,1.147,5.587,1.8,6.24.668S39.625,121.426,37.3,119.691Z" transform="translate(-27.401 -102.681)" fill="#010745"/>
      <path id="パス_30" data-name="パス 30" d="M414.439,341.645c-2.66-1.149-5.585-1.8-6.238-.669s1.376,3.337,3.7,5.072c2.914,2.169,4.68,1.431,5.4.183S417.778,343.083,414.439,341.645Z" transform="translate(-354.17 -295.421)" fill="#010745"/>
      <path id="パス_31" data-name="パス 31" d="M10.522,238.835c0-1.308-2.859-2.2-5.738-2.539-3.609-.424-4.768,1.1-4.768,2.539s1.159,2.965,4.768,2.543C7.663,241.039,10.522,240.147,10.522,238.835Z" transform="translate(-0.016 -205.018)" fill="#010745"/>
      <path id="パス_32" data-name="パス 32" d="M438.19,236.289c-2.879.342-5.736,1.231-5.736,2.541s2.857,2.2,5.736,2.542c3.611.425,4.77-1.1,4.77-2.542S441.8,235.866,438.19,236.289Z" transform="translate(-375.327 -205.012)" fill="#010745"/>
      <path id="パス_33" data-name="パス 33" d="M34.761,341.645c-3.337,1.438-3.58,3.338-2.859,4.586s2.489,1.986,5.4-.183c2.323-1.735,4.351-3.936,3.7-5.072S37.425,340.5,34.761,341.645Z" transform="translate(-27.401 -295.421)" fill="#010745"/>
      <path id="パス_34" data-name="パス 34" d="M414.44,124.09c3.339-1.44,3.582-3.338,2.859-4.587s-2.485-1.986-5.4.183c-2.323,1.735-4.354,3.936-3.7,5.072S411.78,125.238,414.44,124.09Z" transform="translate(-354.17 -102.676)" fill="#010745"/>
      <path id="パス_35" data-name="パス 35" d="M119.675,411.912c-2.169,2.914-1.433,4.683-.184,5.4s3.149.478,4.586-2.859c1.148-2.664,1.8-5.588.668-6.239S121.413,409.589,119.675,411.912Z" transform="translate(-102.668 -354.181)" fill="#010745"/>
      <path id="パス_36" data-name="パス 36" d="M346.039,37.314c2.171-2.915,1.435-4.682.184-5.4s-3.148-.477-4.588,2.862c-1.146,2.662-1.8,5.586-.666,6.238S344.3,39.636,346.039,37.314Z" transform="translate(-295.415 -27.407)" fill="#010745"/>
      <path id="パス_37" data-name="パス 37" d="M211.993,123.861c.988-.263,1.08-2.584.754-4.817-.405-2.795-1.783-3.362-2.864-3.069s-2,1.464-.953,4.089C209.767,122.161,211.014,124.129,211.993,123.861Z" transform="translate(-180.932 -100.594)" fill="#010745"/>
      <path id="パス_38" data-name="パス 38" d="M270.8,335.7c-.979.265-1.078,2.594-.754,4.824.407,2.795,1.786,3.361,2.868,3.067s1.994-1.466.951-4.087C273.033,337.4,271.787,335.436,270.8,335.7Z" transform="translate(-234.232 -291.33)" fill="#010745"/>
      <path id="パス_39" data-name="パス 39" d="M150.223,150.529c-.787.8-.99,2.263,1.229,4.019,1.766,1.393,3.832,2.476,4.546,1.756s-.357-2.784-1.751-4.55C152.5,149.537,151.016,149.738,150.223,150.529Z" transform="translate(-129.906 -130.167)" fill="#010745"/>
      <path id="パス_40" data-name="パス 40" d="M318.722,318.43c.793-.792.995-2.266-1.223-4.02-1.77-1.393-3.828-2.472-4.549-1.754s.361,2.783,1.757,4.55C316.458,319.422,317.931,319.221,318.722,318.43Z" transform="translate(-271.413 -271.154)" fill="#010745"/>
      <path id="パス_41" data-name="パス 41" d="M118.865,212.5c2.233.325,4.56.231,4.818-.755s-1.7-2.229-3.8-3.063c-2.623-1.043-3.795-.13-4.089.951S116.072,212.091,118.865,212.5Z" transform="translate(-100.443 -180.715)" fill="#010745"/>
      <path id="パス_42" data-name="パス 42" d="M340.691,270.324c-2.231-.322-4.553-.229-4.82.752s1.7,2.227,3.8,3.063c2.625,1.045,3.8.13,4.091-.95S343.489,270.729,340.691,270.324Z" transform="translate(-291.482 -234.468)" fill="#010745"/>
      <path id="パス_43" data-name="パス 43" d="M120.054,273.881c2.095-.836,4.064-2.085,3.8-3.071s-2.59-1.073-4.82-.747c-2.8.4-3.361,1.785-3.07,2.863S117.43,274.92,120.054,273.881Z" transform="translate(-100.587 -234.24)" fill="#010745"/>
      <path id="パス_44" data-name="パス 44" d="M339.5,208.93c-2.095.841-4.062,2.083-3.8,3.064s2.588,1.079,4.82.755c2.8-.407,3.361-1.788,3.07-2.865S342.125,207.887,339.5,208.93Z" transform="translate(-291.335 -180.93)" fill="#010745"/>
      <path id="パス_45" data-name="パス 45" d="M151.741,314.7c-2.213,1.747-2.011,3.23-1.218,4.017s2.268.993,4.018-1.225c1.391-1.766,2.474-3.827,1.755-4.549S153.512,313.307,151.741,314.7Z" transform="translate(-130.162 -271.407)" fill="#010745"/>
      <path id="パス_46" data-name="パス 46" d="M317.209,154.255c2.217-1.752,2.014-3.232,1.227-4.019s-2.27-.994-4.018,1.225c-1.4,1.769-2.476,3.832-1.757,4.548S315.441,155.647,317.209,154.255Z" transform="translate(-271.16 -129.91)" fill="#010745"/>
      <path id="パス_47" data-name="パス 47" d="M211.729,335.879c-.979-.263-2.226,1.7-3.061,3.8-1.045,2.625-.136,3.8.951,4.09s2.461-.273,2.866-3.067C212.811,338.469,212.713,336.143,211.729,335.879Z" transform="translate(-180.704 -291.487)" fill="#010745"/>
      <path id="パス_48" data-name="パス 48" d="M273.182,115.793c-1.08-.294-2.461.273-2.864,3.067-.327,2.235-.23,4.557.751,4.821s2.228-1.7,3.063-3.8C275.175,117.26,274.268,116.085,273.182,115.793Z" transform="translate(-234.464 -100.436)" fill="#010745"/>
      <path id="パス_49" data-name="パス 49" d="M214.536,220.019a5.478,5.478,0,1,0,5.478-5.475A5.477,5.477,0,0,0,214.536,220.019Z" transform="translate(-186.197 -186.202)" fill="#010745"/>
    </g>
  </g>
</svg>
