<svg xmlns="http://www.w3.org/2000/svg" width="85.331" height="87.981" viewBox="0 0 85.331 87.981">
  <g id="グループ_84" data-name="グループ 84" transform="translate(-148.821 -970.395)">
    <g id="チケットのアイコン8" transform="translate(141.111 970.395)">
      <path id="パス_100" data-name="パス 100" d="M96.984,231.065H37.071a9.265,9.265,0,0,0-9.255,9.255v11.317l2.716.389a3.208,3.208,0,0,1,0,6.352l-2.717.389v11.319a9.265,9.265,0,0,0,9.255,9.254H96.984a9.265,9.265,0,0,0,9.256-9.254V258.548l-3.019-.141a3.207,3.207,0,0,1,0-6.408l3.018-.143V240.32A9.266,9.266,0,0,0,96.984,231.065Zm6.088,17.77a6.374,6.374,0,0,0,0,12.735v8.516a6.088,6.088,0,0,1-6.088,6.088H37.071a6.088,6.088,0,0,1-6.089-6.088v-8.573a6.375,6.375,0,0,0,0-12.62V240.32a6.089,6.089,0,0,1,6.089-6.089H96.984a6.089,6.089,0,0,1,6.088,6.089Z" transform="translate(-16.651 -191.359)" fill="#010745"/>
      <rect id="長方形_45" data-name="長方形 45" width="2.095" height="5.464" transform="translate(29.346 75.508)" fill="#010745"/>
      <rect id="長方形_46" data-name="長方形 46" width="2.095" height="5.463" transform="translate(29.346 65.911)" fill="#010745"/>
      <rect id="長方形_47" data-name="長方形 47" width="2.095" height="5.464" transform="translate(29.346 56.311)" fill="#010745"/>
      <rect id="長方形_48" data-name="長方形 48" width="2.095" height="5.464" transform="translate(29.346 46.713)" fill="#010745"/>
      <path id="パス_101" data-name="パス 101" d="M102.423,180.758l-1.831,1.018,2.657,4.774,1.83-1.018Z" transform="translate(-76.922 -149.697)" fill="#010745"/>
      <path id="パス_102" data-name="パス 102" d="M91.878,30.763l-4.14-7.442-1.471-2.639-2.706,1.345a3.207,3.207,0,0,1-3.115-5.6l2.569-1.592-1.471-2.641-4.139-7.44A9.265,9.265,0,0,0,64.817,1.167L12.463,30.295A9.266,9.266,0,0,0,8.876,42.883l.15.271a12.871,12.871,0,0,1,2.118-2.992A6.089,6.089,0,0,1,14,33.061L66.358,3.933a6.088,6.088,0,0,1,8.281,2.36l4.139,7.441A6.374,6.374,0,0,0,84.97,24.861L89.11,32.3a6.077,6.077,0,0,1-.614,6.8A12.92,12.92,0,0,1,90.67,41.44,9.265,9.265,0,0,0,91.878,30.763Z" transform="translate(0 0)" fill="#010745"/>
    </g>
    <g id="客船アイコン" transform="translate(176.81 1020.798)">
      <path id="パス_103" data-name="パス 103" d="M256.552,237.206a.97.97,0,1,1-.97.97A.97.97,0,0,1,256.552,237.206Z" transform="translate(-235.391 -225.626)" fill="#010745"/>
      <path id="パス_104" data-name="パス 104" d="M322.122,248.446a.97.97,0,1,1-.97.97A.97.97,0,0,1,322.122,248.446Z" transform="translate(-306.62 -235.896)" fill="#010745"/>
      <path id="パス_105" data-name="パス 105" d="M387.689,259.686a.97.97,0,1,1-.97.97A.97.97,0,0,1,387.689,259.686Z" transform="translate(-377.846 -246.166)" fill="#010745"/>
      <path id="パス_106" data-name="パス 106" d="M271.466,174.765a.907.907,0,1,1,.946.867A.907.907,0,0,1,271.466,174.765Z" transform="translate(-252.519 -167.71)" fill="#010745"/>
      <path id="パス_107" data-name="パス 107" d="M332.248,187.96a.907.907,0,1,1,.946.866A.908.908,0,0,1,332.248,187.96Z" transform="translate(-318.547 -179.765)" fill="#010745"/>
      <path id="パス_108" data-name="パス 108" d="M393.032,201.154a.907.907,0,1,1,.947.866A.907.907,0,0,1,393.032,201.154Z" transform="translate(-384.577 -191.821)" fill="#010745"/>
      <path id="パス_109" data-name="パス 109" d="M4.357,121.241v-6.1l1.617-.369v-4.7l2.325-.531V104.76l6.607-1.633a2.873,2.873,0,0,1,3.4,1.852l.728,2.111,5.435-1.241,3.051,1.818-.717,1.2-2.569-1.531L7.376,111.19v3.264l24.085-5.5,2.246,2.112,9.209-2.564c1.027-.273,1.333.7,1.266,1.237-1.646,13.138-9.857,19.706-9.857,19.706H2.471C.216,127.564,0,121.959,0,121.959S1.755,121.673,4.357,121.241Zm31.756-2.832a1.194,1.194,0,1,0-1.194-1.193A1.194,1.194,0,0,0,36.113,118.409Zm-7.448-5.941,3.463-.963-1.084-1.019L5.759,116.26v4.749c7.153-1.19,18.662-3.139,20.642-3.69C29.312,116.51,28.665,112.468,28.665,112.468Z" transform="translate(0 -103.042)" fill="#010745"/>
    </g>
  </g>
</svg>
