<svg xmlns="http://www.w3.org/2000/svg" width="97.959" height="88.898" viewBox="0 0 97.959 88.898">
  <g id="ウォーキングアイコン3" transform="translate(-74.496)">
    <path id="パス_98" data-name="パス 98" d="M136.936,139.521l-5.736-8.013A15.268,15.268,0,0,0,125.908,127l-11.716-6.15c-2.707-1.1-4.661-2.01-7.492-2.141l-3.272-.093a7.459,7.459,0,0,0-5.5,2.056l-11.15,10.008-9.658,2.649a3.568,3.568,0,0,0-2.539,4.2l.034.143a3.562,3.562,0,0,0,3.983,2.764l7.78-1.11a16,16,0,0,0,5.526-1.859l4.7-3.173.241,15.606a6.014,6.014,0,0,1-.6,3.031L80.3,180.626a4.14,4.14,0,0,0,1.5,5.645l.137.08a4.14,4.14,0,0,0,5.48-1.2l18.215-25.761,6.977,15.269a8.024,8.024,0,0,0,1.932,1.82l13.923,9.325a4.048,4.048,0,0,0,5.427-.856l.156-.2a4.046,4.046,0,0,0-.712-5.712L121.328,169.8l-6.953-19.649.62-17.613,8.336,2.5,8.767,8.607a3.141,3.141,0,0,0,4.072.283l.085-.063A3.141,3.141,0,0,0,136.936,139.521Z" transform="translate(0 -98.017)" fill="#010745"/>
    <path id="パス_99" data-name="パス 99" d="M204.732,17.228a8.663,8.663,0,1,0-7.253-9.874A8.665,8.665,0,0,0,204.732,17.228Z" transform="translate(-101.546 0)" fill="#010745"/>
    <g id="キャリーバッグ4" transform="translate(77.943 44.448)">
      <path id="パス_59" data-name="パス 59" d="M209.22,140.246,199.632,120.5a2.294,2.294,0,0,0-3.066-1.061l-10.118,4.915,9.637,19.844a5.238,5.238,0,0,1,3.815,2.877c.032.066.059.134.089.2l8.17-3.968A2.294,2.294,0,0,0,209.22,140.246Z" transform="translate(-114.939 -108.862)" fill="#010745"/>
      <path id="パス_60" data-name="パス 60" d="M248.108,422.279a3.942,3.942,0,1,0,.948,1.243A3.946,3.946,0,0,0,248.108,422.279Zm-1.331,3.7a1.465,1.465,0,0,1-1.185.725,1.471,1.471,0,0,1-.809-.2,1.463,1.463,0,0,1-.725-1.185,1.469,1.469,0,0,1,.2-.81,1.462,1.462,0,0,1,1.185-.724,1.467,1.467,0,0,1,.81.2,1.463,1.463,0,0,1,.725,1.185A1.47,1.47,0,0,1,246.777,425.975Z" transform="translate(-165.284 -384.729)" fill="#010745"/>
      <path id="パス_61" data-name="パス 61" d="M79.887,35.268,64.213,2.994a1.733,1.733,0,0,0,.081-.193l.139-.4A1.7,1.7,0,0,0,63.382.234l-.4-.139a1.7,1.7,0,0,0-2.165,1.051l-.139.4a1.7,1.7,0,0,0,1.051,2.164l.4.139a1.723,1.723,0,0,0,.336.08l15.47,31.852A5.227,5.227,0,0,1,79.887,35.268Z" transform="translate(0 0)" fill="#010745"/>
    </g>
  </g>
</svg>
